#!OML:ASF H:\Terrain\Walking\May29\JustinRory\Justin.ASF
:FULLY-SPECIFIED
:DEGREES
111
root 10.9512 10.6092 9.17722 -0.483055 -45.7813 -12.0705
lowerback 49.117 1.75095 -0.0349301
upperback 11.491 1.39085 3.69934
thorax -7.72069 -0.024272 3.49384
lowerneck 1.75553 -13.0421 -14.488
upperneck 21.0866 -22.3122 21.5327
head 10.6682 -10.3984 7.60027
rclavicle 8.38871e-014 2.0276e-014
rhumerus 4.89316 16.0517 -92.7809
rradius 101.467
rwrist -8.82697
rhand -22.5372 21.1272
rfingers 7.12502
rthumb 3.88999 -8.81706
lclavicle 8.38871e-014 2.0276e-014
lhumerus 20.2888 8.98843 62.002
lradius 74.2047
lwrist -7.91435
lhand -8.01907 26.799
lfingers 7.12502
lthumb 17.8905 55.9961
rfemur -74.8949 -6.86143 14.0679
rtibia 100.113
rfoot -11.4308 6.63677
rtoes -16.4722
lfemur -62.8494 26.7885 17.9991
ltibia 105.625
lfoot -27.3842 -12.1982
ltoes -36.4168
112
root 10.9495 10.582 9.08171 -2.09761 -45.8034 -11.9819
lowerback 50.2363 2.0006 -0.215648
upperback 11.7675 1.531 3.7298
thorax -7.5807 -0.00391495 3.56044
lowerneck 1.92949 -13.0618 -14.437
upperneck 20.7812 -22.3454 21.7676
head 10.5569 -10.4227 7.6784
rclavicle 2.22639e-014 -2.26615e-014
rhumerus 4.63776 16.1659 -92.7001
rradius 101.727
rwrist -8.66441
rhand -21.5072 21.0028
rfingers 7.12502
rthumb 4.88457 -8.92088
lclavicle 2.22639e-014 -2.26615e-014
lhumerus 19.0633 10.3674 62.5914
lradius 74.1236
lwrist -7.58025
lhand -9.09996 27.4897
lfingers 7.12502
lthumb 16.8502 56.7786
rfemur -73.7061 -6.84229 14.2608
rtibia 100.023
rfoot -10.9079 6.38668
rtoes -15.7625
lfemur -61.5439 26.0408 18.6366
ltibia 105.268
lfoot -26.3382 -13.6339
ltoes -31.8321
113
root 10.9923 10.608 9.05071 -2.26969 -46.4113 -11.8695
lowerback 50.0263 2.10635 0.0075532
upperback 11.9051 1.71912 3.52904
thorax -7.39368 0.0904713 3.15729
lowerneck 1.80064 -13.1644 -14.4264
upperneck 20.7252 -22.4719 21.7907
head 10.5929 -10.4692 7.64921
rclavicle -3.53837e-014 -4.81059e-014
rhumerus 4.4664 16.2117 -92.4959
rradius 101.824
rwrist -8.50836
rhand -20.856 21.0327
rfingers 7.12502
rthumb 5.51337 -8.87561
lclavicle -3.53837e-014 -4.81059e-014
lhumerus 17.7354 11.6371 63.2043
lradius 74.1965
lwrist -6.42369
lhand -10.0403 27.6626
lfingers 7.12502
lthumb 15.9449 57.0262
rfemur -73.6307 -6.52586 14.4097
rtibia 99.5723
rfoot -10.491 6.36963
rtoes -15.6156
lfemur -61.0231 26.2052 18.6133
ltibia 104.994
lfoot -25.908 -13.7004
ltoes -30.4003
114
root 11.0334 10.6351 9.00773 -2.66703 -46.9161 -11.7598
lowerback 50.0658 2.25874 0.0764619
upperback 12.0248 1.8964 3.44458
thorax -7.26788 0.167725 2.95978
lowerneck 1.70296 -13.2473 -14.5513
upperneck 20.6912 -22.5696 21.7979
head 10.6395 -10.5141 7.64334
rclavicle -1.08536e-013 8.26944e-014
rhumerus 4.55758 16.3454 -92.0669
rradius 101.487
rwrist -8.61244
rhand -20.3297 21.4125
rfingers 7.12502
rthumb 6.0215 -8.4819
lclavicle -1.08536e-013 8.26944e-014
lhumerus 16.1367 12.932 63.8744
lradius 74.5243
lwrist -5.14695
lhand -10.9222 28.3366
lfingers 7.12502
lthumb 15.0954 57.7662
rfemur -73.2112 -6.18977 14.5033
rtibia 99.1136
rfoot -10.0282 6.462
rtoes -14.9564
lfemur -60.3231 26.0737 18.6886
ltibia 104.658
lfoot -25.6759 -13.3785
ltoes -30.7247
115
root 11.0781 10.6624 8.96978 -3.0595 -47.1146 -11.664
lowerback 50.0291 2.13104 0.390962
upperback 12.0993 1.86315 3.24952
thorax -7.15878 0.164013 2.61558
lowerneck 1.82532 -13.2857 -14.4917
upperneck 20.4843 -22.592 21.8152
head 10.5386 -10.5356 7.6377
rclavicle -4.7112e-014 7.7526e-014
rhumerus 4.4901 16.4363 -91.7691
rradius 101.185
rwrist -8.7756
rhand -19.6173 21.9042
rfingers 7.12502
rthumb 6.70928 -7.96951
lclavicle -4.7112e-014 7.7526e-014
lhumerus 14.3286 14.1 64.317
lradius 74.8272
lwrist -3.52505
lhand -12.1098 29.3008
lfingers 7.12502
lthumb 13.9511 58.8127
rfemur -72.6987 -6.11053 14.4914
rtibia 98.597
rfoot -9.55735 6.67747
rtoes -14.1168
lfemur -59.8371 25.4988 18.6572
ltibia 104.359
lfoot -25.4466 -12.8598
ltoes -30.3655
116
root 11.1211 10.6702 8.94334 -3.61589 -47.2492 -11.5861
lowerback 50.0519 1.97186 0.677257
upperback 12.2465 1.78059 3.15764
thorax -6.98096 0.127139 2.41725
lowerneck 1.88291 -13.2972 -14.4788
upperneck 20.1173 -22.4897 21.7001
head 10.3484 -10.508 7.60012
rclavicle 2.64384e-014 -5.14852e-014
rhumerus 4.26253 16.5539 -91.5274
rradius 101.213
rwrist -8.72563
rhand -18.7195 22.0138
rfingers 7.12502
rthumb 7.57588 -7.83054
lclavicle 2.64384e-014 -5.14852e-014
lhumerus 12.4465 15.3611 64.8128
lradius 75.0467
lwrist -1.79079
lhand -13.2441 30.4567
lfingers 7.12502
lthumb 12.8579 60.0407
rfemur -72.0466 -6.13598 14.4275
rtibia 98.1674
rfoot -9.24368 6.9667
rtoes -13.4329
lfemur -59.372 24.8785 18.6613
ltibia 104.232
lfoot -25.3662 -12.1341
ltoes -30.6452
117
root 11.1588 10.6659 8.91443 -4.3186 -47.3017 -11.5247
lowerback 50.2363 1.8434 0.821373
upperback 12.3644 1.67832 3.1716
thorax -6.86603 0.0707559 2.40906
lowerneck 2.00211 -13.3126 -14.6199
upperneck 19.7601 -22.399 21.5838
head 10.1743 -10.5002 7.58964
rclavicle -5.84427e-014 6.95746e-014
rhumerus 3.92523 16.815 -91.2149
rradius 101.357
rwrist -8.69788
rhand -18.2136 22.3195
rfingers 7.12502
rthumb 8.0642 -7.50661
lclavicle -5.84427e-014 6.95746e-014
lhumerus 10.4329 16.739 65.3778
lradius 75.3177
lwrist -0.313319
lhand -13.9974 31.8161
lfingers 7.12502
lthumb 12.1316 61.4444
rfemur -71.2998 -6.23261 14.3581
rtibia 97.7972
rfoot -8.67971 7.22951
rtoes -10.7061
lfemur -58.9411 24.2632 18.6638
ltibia 104.171
lfoot -25.2066 -11.4812
ltoes -31.0397
118
root 11.1988 10.6733 8.86696 -5.01623 -47.2364 -11.463
lowerback 50.4902 1.70565 0.960837
upperback 12.3249 1.58598 3.18902
thorax -6.93595 0.025422 2.40356
lowerneck 1.97375 -13.393 -14.553
upperneck 19.8963 -22.4837 21.3121
head 10.1995 -10.5405 7.46297
rclavicle 3.26007e-014 -5.52621e-014
rhumerus 3.4126 17.1194 -90.9204
rradius 101.469
rwrist -8.65542
rhand -18.2316 22.519
rfingers 7.12502
rthumb 8.04685 -7.30784
lclavicle 3.26007e-014 -5.52621e-014
lhumerus 8.15683 17.8744 65.7674
lradius 75.6158
lwrist 0.971873
lhand -14.8418 32.7843
lfingers 7.12502
lthumb 11.3174 62.459
rfemur -70.6747 -6.34054 14.3331
rtibia 97.395
rfoot -7.98929 7.24819
rtoes -9.19937
lfemur -58.5823 23.4987 18.5826
ltibia 103.975
lfoot -24.6761 -11.0492
ltoes -30.9071
119
root 11.2926 10.727 8.87 -4.39328 -47.6301 -11.3606
lowerback 49.5962 1.2745 1.70571
upperback 12.1128 1.43546 2.84152
thorax -7.01047 0.0148431 1.73495
lowerneck 1.81882 -13.4242 -14.5722
upperneck 20.0998 -22.5341 21.1626
head 10.2951 -10.5542 7.39437
rclavicle 1.39149e-015 -6.36111e-015
rhumerus 3.02504 17.1827 -90.5548
rradius 101.518
rwrist -8.6319
rhand -18.2439 22.5617
rfingers 7.12502
rthumb 8.03498 -7.26554
lclavicle 1.39149e-015 -6.36111e-015
lhumerus 5.97911 19.0099 66.1232
lradius 75.6499
lwrist 1.76484
lhand -15.1644 33.7425
lfingers 7.12502
lthumb 11.0062 63.4339
rfemur -71.2808 -6.34586 14.3483
rtibia 96.6713
rfoot -7.35652 7.40818
rtoes -10.3405
lfemur -59.066 23.3325 17.901
ltibia 103.844
lfoot -24.1341 -10.1069
ltoes -30.7525
120
root 11.3096 10.7276 8.81794 -5.75345 -47.1696 -11.3862
lowerback 50.1104 0.94559 1.95697
upperback 12.3493 1.15186 2.96108
thorax -6.80533 -0.137398 1.86884
lowerneck 1.74208 -13.3772 -14.9255
upperneck 19.9822 -22.4573 21.2778
head 10.3117 -10.5359 7.49521
rclavicle -3.57812e-014 -2.00773e-014
rhumerus 2.89383 17.1873 -90.2639
rradius 101.398
rwrist -8.58052
rhand -17.9393 23.0746
rfingers 7.12502
rthumb 8.32889 -6.74115
lclavicle -3.57812e-014 -2.00773e-014
lhumerus 3.99258 20.3445 66.5298
lradius 75.361
lwrist 2.31911
lhand -15.7151 34.5361
lfingers 7.12502
lthumb 10.475 64.2551
rfemur -69.7472 -6.78243 14.3586
rtibia 96.3815
rfoot -7.20142 7.51954
rtoes -11.3779
lfemur -58.1838 21.8535 18.0961
ltibia 103.618
lfoot -23.7918 -9.75459
ltoes -30.5843
121
root 11.3697 10.7521 8.81607 -5.55418 -47.6049 -11.2374
lowerback 49.0431 0.828037 2.15702
upperback 12.4587 1.09255 2.93809
thorax -6.52803 -0.143715 1.76077
lowerneck 1.54222 -13.3807 -15.509
upperneck 19.9441 -22.4472 21.38
head 10.4246 -10.5511 7.60678
rclavicle -1.11319e-014 2.66371e-014
rhumerus 2.75822 17.3271 -90.0414
rradius 101.241
rwrist -8.15788
rhand -17.7166 23.2385
rfingers 7.12502
rthumb 8.54379 -6.56869
lclavicle -1.11319e-014 2.66371e-014
lhumerus 1.7975 21.5289 67.1316
lradius 75.1962
lwrist 3.17071
lhand -18.0324 35.1607
lfingers 7.12502
lthumb 8.23911 64.9801
rfemur -69.965 -6.67598 14.3231
rtibia 95.9139
rfoot -6.74385 7.98699
rtoes -11.7077
lfemur -58.2936 21.8067 17.7109
ltibia 103.596
lfoot -23.3283 -9.10962
ltoes -29.2652
122
root 11.4002 10.7117 8.76073 -6.49859 -48.3919 -10.9709
lowerback 49.0308 1.39669 1.57488
upperback 12.5798 1.48734 3.17071
thorax -6.43068 0.00570933 2.12336
lowerneck 1.41969 -13.4209 -16.0018
upperneck 19.9919 -22.5332 21.514
head 10.5707 -10.6065 7.70854
rclavicle 4.77083e-015 -3.08116e-014
rhumerus 2.29309 17.2671 -89.7765
rradius 101.466
rwrist -7.69088
rhand -17.9251 23.1416
rfingers 7.12502
rthumb 8.34258 -6.67366
lclavicle 4.77083e-015 -3.08116e-014
lhumerus -0.561155 22.2087 67.4883
lradius 75.076
lwrist 4.36089
lhand -19.8121 36.645
lfingers 7.12502
lthumb 6.52125 66.5246
rfemur -69.6448 -6.07768 14.3168
rtibia 95.7874
rfoot -6.41173 8.22845
rtoes -11.3589
lfemur -57.4352 21.8518 17.9576
ltibia 103.65
lfoot -22.8739 -8.83582
ltoes -27.488
123
root 11.4374 10.6751 8.7129 -7.74335 -49.0131 -10.778
lowerback 49.3959 1.6574 1.45206
upperback 12.6477 1.70936 3.15474
thorax -6.41729 0.0920113 2.07744
lowerneck 1.52141 -13.4289 -16.0922
upperneck 19.9259 -22.5475 21.5084
head 10.5407 -10.6302 7.72273
rclavicle -1.68967e-014 -3.79679e-014
rhumerus 1.58976 16.8234 -89.7078
rradius 101.885
rwrist -7.35534
rhand -18.3288 23.5047
rfingers 7.12502
rthumb 7.95305 -6.32563
lclavicle -1.68967e-014 -3.79679e-014
lhumerus -2.87429 22.3947 67.2632
lradius 74.619
lwrist 5.71883
lhand -19.5802 38.3473
lfingers 7.12502
lthumb 6.74508 68.2199
rfemur -68.8796 -5.67767 14.33
rtibia 95.6006
rfoot -6.20493 8.50096
rtoes -11.7395
lfemur -56.2908 21.5287 18.2637
ltibia 103.765
lfoot -22.7184 -8.15912
ltoes -27.5598
124
root 11.4736 10.6267 8.65112 -8.58307 -48.9367 -10.6904
lowerback 49.6006 1.55595 1.49445
upperback 12.6277 1.60367 3.09789
thorax -6.46031 0.0428179 2.04159
lowerneck 1.51995 -13.3561 -15.8915
upperneck 19.7771 -22.4291 21.5048
head 10.4307 -10.5706 7.70782
rclavicle 2.84262e-014 -6.4605e-014
rhumerus 1.01676 16.297 -90.0238
rradius 101.996
rwrist -6.91682
rhand -18.4407 23.6373
rfingers 7.12502
rthumb 7.84498 -6.19714
lclavicle 2.84262e-014 -6.4605e-014
lhumerus -5.12477 22.4907 66.86
lradius 74.0819
lwrist 7.33099
lhand -19.5726 39.5436
lfingers 7.12502
lthumb 6.75244 69.416
rfemur -68.5601 -5.94428 14.3694
rtibia 95.5163
rfoot -5.69131 8.65452
rtoes -12.2651
lfemur -56.2841 20.916 18.2215
ltibia 104.022
lfoot -22.3252 -7.48838
ltoes -29.2118
